<?xml version="1.0" standalone="no"?>
<!DOCTYPE svg PUBLIC "-//W3C//DTD SVG 20010904//EN"
 "http://www.w3.org/TR/2001/REC-SVG-20010904/DTD/svg10.dtd">
<svg version="1.0" xmlns="http://www.w3.org/2000/svg"
 width="256.000000pt" height="256.000000pt" viewBox="0 0 256.000000 256.000000"
 preserveAspectRatio="xMidYMid meet">
<metadata>
Created by potrace 1.14, written by Peter Selinger 2001-2017
</metadata>
<g transform="translate(0.000000,256.000000) scale(0.100000,-0.100000)"
fill="#000000" stroke="none">
<path d="M930 2189 l-95 -100 -26 -99 c-19 -72 -23 -102 -15 -111 8 -9 8 -10
-1 -5 -12 7 -18 -17 -14 -49 1 -5 -8 1 -19 15 -11 14 -20 28 -20 33 0 4 -16
29 -35 57 -19 27 -33 55 -30 62 9 27 13 190 5 182 -5 -5 -11 -20 -14 -34 -2
-14 -7 -32 -10 -40 -3 -8 -8 -26 -10 -40 -3 -14 -10 -40 -15 -59 -10 -33 -6
-75 9 -96 4 -5 31 -56 60 -112 29 -57 57 -103 63 -103 5 0 5 -6 -2 -13 -6 -8
-9 -16 -6 -18 5 -5 11 -40 20 -124 4 -32 9 -67 10 -77 4 -21 2 -19 -63 27
l-43 30 6 55 c3 30 8 78 11 106 3 29 2 54 -3 57 -5 3 -9 -2 -10 -11 -2 -30
-42 -155 -54 -166 -6 -7 -9 -7 -8 -1 2 6 -9 35 -23 65 -32 69 -35 81 -43 155
-10 94 -17 80 -13 -25 6 -139 31 -213 93 -275 90 -89 241 -199 258 -188 6 3 7
1 3 -5 -4 -7 -3 -12 2 -12 5 0 33 -31 61 -70 29 -38 58 -76 66 -83 8 -8 17
-41 20 -73 4 -33 9 -61 10 -64 2 -3 -2 -13 -9 -22 -12 -16 -15 -15 -47 6 -31
21 -50 28 -114 40 -11 2 -48 13 -82 25 -34 12 -67 21 -72 21 -5 0 8 -39 29
-86 30 -68 50 -97 91 -135 32 -29 64 -50 79 -51 14 0 30 -2 35 -3 6 -2 20 -3
33 -4 21 -1 23 -4 18 -47 -5 -38 -2 -51 18 -77 38 -51 117 -217 121 -253 2
-22 13 -42 33 -59 17 -14 34 -35 37 -45 6 -17 16 -20 75 -20 59 0 70 3 75 19
3 11 20 33 37 50 19 18 33 43 34 59 3 33 81 198 117 245 19 25 23 42 20 80 -3
41 0 47 17 48 11 1 29 3 40 4 11 1 28 3 38 4 34 2 120 97 152 167 16 37 30 75
30 85 0 17 -2 17 -54 -1 -29 -10 -80 -24 -112 -30 -32 -7 -74 -23 -94 -36 -32
-22 -36 -23 -47 -8 -7 9 -11 20 -9 23 3 6 17 102 19 129 0 6 4 12 8 12 14 0
100 121 93 132 -4 6 -3 8 2 5 6 -3 47 21 93 54 45 32 84 59 85 59 2 0 25 19
51 43 96 84 122 115 120 145 -1 12 1 20 4 17 12 -13 41 116 41 188 0 89 -14
105 -18 19 -4 -75 -12 -123 -23 -132 -4 -3 -17 -27 -31 -53 l-24 -48 -28 90
c-16 50 -31 91 -33 91 -5 0 5 -144 13 -184 3 -18 -4 -29 -41 -56 -20 -14 -20
-14 0 10 11 14 20 32 19 40 -1 8 -2 58 -3 110 -2 100 -8 103 -38 20 -9 -28
-12 -30 -13 -12 0 13 29 79 65 148 36 69 59 122 53 119 -7 -4 -6 -1 3 7 18 15
18 21 -12 143 -30 125 -42 130 -33 15 3 -52 7 -100 7 -105 0 -6 -21 -44 -48
-85 l-48 -74 -24 105 c-13 57 -25 112 -25 121 -1 9 -4 15 -7 12 -3 -2 -10 7
-15 20 -12 27 -183 206 -197 206 -5 0 16 -36 46 -80 30 -45 55 -83 55 -85 0
-2 13 -24 30 -47 16 -24 31 -56 34 -73 2 -16 10 -64 17 -105 7 -41 12 -83 11
-92 0 -10 2 -18 6 -18 4 0 9 -37 11 -81 2 -60 -1 -84 -11 -90 -7 -5 -8 -9 -2
-9 14 0 0 -108 -20 -152 -8 -18 -28 -48 -44 -67 l-28 -33 3 48 c3 43 -2 57
-39 114 -23 36 -45 67 -49 70 -3 3 -12 16 -18 28 -25 47 -21 13 10 -79 36
-109 35 -89 13 -209 -17 -97 -28 -117 -111 -208 -13 -14 -20 -28 -17 -33 3 -5
1 -9 -5 -9 -5 0 -8 -9 -6 -19 5 -28 -41 -41 -145 -41 -104 0 -150 13 -145 40
3 18 -75 129 -110 156 -7 5 -16 30 -20 55 -10 70 -24 140 -30 148 -2 5 9 48
25 97 37 109 40 146 7 89 -13 -22 -38 -61 -56 -87 -18 -27 -29 -53 -25 -59 4
-8 3 -9 -5 -5 -9 6 -11 -4 -10 -38 2 -25 7 -46 13 -46 5 0 6 -3 2 -7 -4 -4
-22 10 -41 31 -75 85 -94 237 -56 460 12 71 20 135 17 142 -3 8 -1 14 4 14 6
0 9 4 7 8 -4 14 158 260 167 255 5 -4 6 -1 2 5 -4 7 -10 12 -14 11 -4 0 -50
-46 -102 -100z m905 -634 c-11 -70 -10 -78 6 -77 3 1 6 -6 6 -14 0 -7 -2 -12
-5 -9 -3 2 -13 0 -24 -6 -17 -9 -18 -8 -10 8 6 10 10 21 10 26 0 22 15 133 19
140 10 16 10 3 -2 -68z"/>
<path d="M709 1695 c0 -17 -2 -61 -3 -100 -3 -63 -1 -73 22 -97 35 -38 45 -35
38 10 -3 20 -9 55 -12 77 -11 83 -15 98 -29 119 -15 20 -15 20 -16 -9z"/>
</g>
</svg>
